<?xml version="1.0" encoding="utf-8"?>
<!-- Generator: Adobe Illustrator 19.0.0, SVG Export Plug-In . SVG Version: 6.00 Build 0)  -->
<svg version="1.1" id="Layer_1" xmlns="http://www.w3.org/2000/svg" xmlns:xlink="http://www.w3.org/1999/xlink" x="0px" y="0px"
	 viewBox="0 0 595.3 595.3" style="enable-background:new 0 0 595.3 595.3;" xml:space="preserve">
<style type="text/css">
	.st0{fill:#22485D;}
	.st1{clip-path:url(#XMLID_139_);}
	.st2{fill:#FFFFD9;}
	.st3{fill:#DFB6B2;}
	.st4{fill:#ADA49E;}
	.st5{fill:#FFFFFF;}
	.st6{fill:#98B6D8;}
	.st7{fill:#728CB2;}
	.st8{fill:#FFF1DF;}
	.st9{fill:#B68F88;}
	.st10{fill:#002F46;}
	.st11{fill:url(#XMLID_219_);}
	.st12{fill:url(#XMLID_249_);}
	.st13{fill:url(#XMLID_251_);}
	.st14{fill:url(#XMLID_252_);}
	.st15{fill:url(#XMLID_271_);}
	.st16{fill:#7BADAE;}
	.st17{fill:#A4CCC3;}
	.st18{fill:#C9D3D0;}
	.st19{fill:#D9EBEE;}
	.st20{fill:#8960A4;}
	.st21{fill:#6789BA;}
	.st22{fill:#ED6A59;}
	.st23{fill:#837CAC;}
	.st24{fill:#A4914B;}
	.st25{fill:url(#XMLID_272_);}
	.st26{fill:#2B6D70;}
	.st27{fill:#9A7C78;}
	.st28{fill:#1D3853;}
	.st29{fill:#871212;}
	.st30{fill:#490A0A;}
	.st31{fill:#83ADAF;}
	.st32{fill:#417581;}
	.st33{fill:#C98A24;}
	.st34{fill:#894A11;}
	.st35{fill:url(#XMLID_328_);}
	.st36{fill:#BFA6A3;}
	.st37{fill:#F07EAA;}
	.st38{fill:#9FB7B1;}
	.st39{fill:url(#XMLID_332_);}
	.st40{fill:#96585B;}
	.st41{fill:#6A5A69;}
	.st42{fill:#09172D;}
	.st43{fill:#1F4359;}
	.st44{fill:#367177;}
	.st45{fill:#703D41;}
	.st46{fill:#50384E;}
	.st47{fill:#ED937D;}
	.st48{fill:#445879;}
	.st49{fill:#7A92B4;}
	.st50{fill:#0F224C;}
	.st51{fill:#122A50;}
	.st52{fill:#4C404C;}
	.st53{fill:#395B77;}
	.st54{fill:#67BDE8;}
	.st55{fill:#8F829C;}
	.st56{fill:#296F76;}
	.st57{fill:#849E3D;}
	.st58{fill:#557A43;}
	.st59{fill:#895462;}
	.st60{fill:#BA7D90;}
	.st61{fill:url(#XMLID_334_);}
	.st62{fill:url(#XMLID_353_);}
</style>
<rect id="XMLID_438_" class="st0" width="595.3" height="595.3"/>
<g id="XMLID_130_">
	<defs>
		<rect id="XMLID_129_" width="595.3" height="595.3"/>
	</defs>
	<clipPath id="XMLID_139_">
		<use xlink:href="#XMLID_129_"  style="overflow:visible;"/>
	</clipPath>
	<g id="XMLID_128_" class="st1">
		<g id="XMLID_4_">
			<rect id="XMLID_142_" x="235.9" y="18" class="st2" width="181.1" height="406.4"/>
			<g id="XMLID_443_">
				<rect id="XMLID_668_" x="235.9" y="137.3" class="st3" width="181.1" height="287.2"/>
				<rect id="XMLID_220_" x="235.9" y="132.3" class="st4" width="180.6" height="4.9"/>
				<rect id="XMLID_221_" x="235.9" y="107.1" class="st5" width="180.6" height="25.2"/>
				<rect id="XMLID_222_" x="235.9" y="103" class="st3" width="181.1" height="4.1"/>
				<rect id="XMLID_223_" x="235.9" y="75.4" class="st4" width="117.3" height="27.6"/>
				<rect id="XMLID_224_" x="353.2" y="75.4" class="st3" width="26.2" height="27.6"/>
				<g id="XMLID_237_">
					<g id="XMLID_228_">
						<rect id="XMLID_225_" x="248.3" y="148.3" class="st6" width="19.2" height="30.7"/>
						<polygon id="XMLID_229_" class="st7" points="267.5,148.3 250.5,148.3 248.3,148.3 248.3,150.8 248.3,179 250.5,179 
							250.5,150.8 267.5,150.8 						"/>
						<rect id="XMLID_226_" x="257.9" y="148.3" class="st8" width="1.3" height="30.7"/>
						<rect id="XMLID_227_" x="248.3" y="163" class="st8" width="19.2" height="1.3"/>
					</g>
					<g id="XMLID_238_">
						<rect id="XMLID_242_" x="300.8" y="148.3" class="st6" width="19.2" height="30.7"/>
						<polygon id="XMLID_241_" class="st7" points="320,148.3 302.9,148.3 300.8,148.3 300.8,150.8 300.8,179 302.9,179 
							302.9,150.8 320,150.8 						"/>
						<rect id="XMLID_240_" x="310.4" y="148.3" class="st8" width="1.3" height="30.7"/>
						<rect id="XMLID_239_" x="300.8" y="163" class="st8" width="19.2" height="1.3"/>
					</g>
					<g id="XMLID_243_">
						<rect id="XMLID_247_" x="353.2" y="148.3" class="st6" width="19.2" height="30.7"/>
						<polygon id="XMLID_246_" class="st7" points="372.4,148.3 355.4,148.3 353.2,148.3 353.2,150.8 353.2,179 355.4,179 
							355.4,150.8 372.4,150.8 						"/>
						<rect id="XMLID_245_" x="362.8" y="148.3" class="st8" width="1.3" height="30.7"/>
						<rect id="XMLID_244_" x="353.2" y="163" class="st8" width="19.2" height="1.3"/>
					</g>
					<g id="XMLID_248_">
						<rect id="XMLID_465_" x="405.7" y="148.3" class="st6" width="11.3" height="30.7"/>
						<polygon id="XMLID_455_" class="st7" points="417,148.3 417,150.8 407.8,150.8 407.8,179 405.7,179 405.7,148.3 						"/>
						<rect id="XMLID_250_" x="415.3" y="148.3" class="st8" width="1.3" height="30.7"/>
						<rect id="XMLID_453_" x="405.7" y="163" class="st8" width="11.3" height="1.3"/>
					</g>
				</g>
				<g id="XMLID_254_">
					<g id="XMLID_270_">
						<rect id="XMLID_329_" x="235.9" y="191.5" class="st6" width="6.7" height="30.7"/>
						<rect id="XMLID_274_" x="235.9" y="191.5" class="st7" width="6.7" height="2.5"/>
						<rect id="XMLID_273_" x="235.9" y="206.2" class="st8" width="6.7" height="1.3"/>
					</g>
					<g id="XMLID_265_">
						<rect id="XMLID_269_" x="275.9" y="191.5" class="st6" width="19.2" height="30.7"/>
						<polygon id="XMLID_268_" class="st7" points="295.1,191.5 278,191.5 275.9,191.5 275.9,194 275.9,222.2 278,222.2 278,194 
							295.1,194 						"/>
						<rect id="XMLID_267_" x="285.5" y="191.5" class="st8" width="1.3" height="30.7"/>
						<rect id="XMLID_266_" x="275.9" y="206.2" class="st8" width="19.2" height="1.3"/>
					</g>
					<g id="XMLID_260_">
						<rect id="XMLID_264_" x="328.3" y="191.5" class="st6" width="19.2" height="30.7"/>
						<polygon id="XMLID_263_" class="st7" points="347.5,191.5 330.5,191.5 328.3,191.5 328.3,194 328.3,222.2 330.5,222.2 
							330.5,194 347.5,194 						"/>
						<rect id="XMLID_262_" x="337.9" y="191.5" class="st8" width="1.3" height="30.7"/>
						<rect id="XMLID_261_" x="328.3" y="206.2" class="st8" width="19.2" height="1.3"/>
					</g>
					<g id="XMLID_255_">
						<rect id="XMLID_259_" x="380.7" y="191.5" class="st6" width="19.2" height="30.7"/>
						<polygon id="XMLID_258_" class="st7" points="400,191.5 382.9,191.5 380.7,191.5 380.7,194 380.7,222.2 382.9,222.2 
							382.9,194 400,194 						"/>
						<rect id="XMLID_257_" x="390.4" y="191.5" class="st8" width="1.3" height="30.7"/>
						<rect id="XMLID_256_" x="380.7" y="206.2" class="st8" width="19.2" height="1.3"/>
					</g>
				</g>
				<g id="XMLID_277_">
					<rect id="XMLID_253_" x="234.3" y="247.2" class="st9" width="182.7" height="6.8"/>
					<rect id="XMLID_275_" x="233" y="228.7" class="st9" width="184" height="2"/>
					<rect id="XMLID_276_" x="245.7" y="230.7" class="st9" width="1.1" height="17.2"/>
					<rect id="XMLID_278_" x="258.6" y="230.7" class="st9" width="1.1" height="17.2"/>
					<rect id="XMLID_279_" x="271.6" y="230.7" class="st9" width="1.1" height="17.2"/>
					<rect id="XMLID_280_" x="284.5" y="230.7" class="st9" width="1.1" height="17.2"/>
					<rect id="XMLID_281_" x="297.4" y="230.7" class="st9" width="1.1" height="17.2"/>
					<rect id="XMLID_282_" x="310.4" y="230.7" class="st9" width="1.1" height="17.2"/>
					<rect id="XMLID_283_" x="323.3" y="230.7" class="st9" width="1.1" height="17.2"/>
					<rect id="XMLID_284_" x="336.2" y="230.7" class="st9" width="1.1" height="17.2"/>
					<rect id="XMLID_285_" x="349.2" y="230.7" class="st9" width="1.1" height="17.2"/>
					<rect id="XMLID_286_" x="362.1" y="230.7" class="st9" width="1.1" height="17.2"/>
					<rect id="XMLID_287_" x="375" y="230.7" class="st9" width="1.1" height="17.2"/>
					<rect id="XMLID_288_" x="388" y="230.7" class="st9" width="1.1" height="17.2"/>
					<rect id="XMLID_289_" x="400.9" y="230.7" class="st9" width="1.1" height="17.2"/>
					<rect id="XMLID_290_" x="413.8" y="230.7" class="st9" width="1.1" height="17.2"/>
				</g>
				<g id="XMLID_330_">
					<g id="XMLID_346_">
						<rect id="XMLID_350_" x="248.3" y="267.8" class="st6" width="19.2" height="30.7"/>
						<polygon id="XMLID_349_" class="st7" points="267.5,267.8 250.5,267.8 248.3,267.8 248.3,270.3 248.3,298.5 250.5,298.5 
							250.5,270.3 267.5,270.3 						"/>
						<rect id="XMLID_348_" x="257.9" y="267.8" class="st8" width="1.3" height="30.7"/>
						<rect id="XMLID_347_" x="248.3" y="282.5" class="st8" width="19.2" height="1.3"/>
					</g>
					<g id="XMLID_341_">
						<rect id="XMLID_345_" x="300.8" y="267.8" class="st6" width="19.2" height="30.7"/>
						<polygon id="XMLID_344_" class="st7" points="320,267.8 302.9,267.8 300.8,267.8 300.8,270.3 300.8,298.5 302.9,298.5 
							302.9,270.3 320,270.3 						"/>
						<rect id="XMLID_343_" x="310.4" y="267.8" class="st8" width="1.3" height="30.7"/>
						<rect id="XMLID_342_" x="300.8" y="282.5" class="st8" width="19.2" height="1.3"/>
					</g>
					<g id="XMLID_336_">
						<rect id="XMLID_340_" x="353.2" y="267.8" class="st6" width="19.2" height="30.7"/>
						<polygon id="XMLID_339_" class="st7" points="372.4,267.8 355.4,267.8 353.2,267.8 353.2,270.3 353.2,298.5 355.4,298.5 
							355.4,270.3 372.4,270.3 						"/>
						<rect id="XMLID_338_" x="362.8" y="267.8" class="st8" width="1.3" height="30.7"/>
						<rect id="XMLID_337_" x="353.2" y="282.5" class="st8" width="19.2" height="1.3"/>
					</g>
					<g id="XMLID_331_">
						<rect id="XMLID_461_" x="405.7" y="267.8" class="st6" width="11.3" height="30.7"/>
						<polygon id="XMLID_449_" class="st7" points="417,267.8 417,270.3 407.8,270.3 407.8,298.5 405.7,298.5 405.7,267.8 						"/>
						<rect id="XMLID_333_" x="415.3" y="267.8" class="st8" width="1.3" height="30.7"/>
						<rect id="XMLID_447_" x="405.7" y="282.5" class="st8" width="11.3" height="1.3"/>
					</g>
				</g>
				<g id="XMLID_351_">
					<g id="XMLID_367_">
						<rect id="XMLID_371_" x="248.3" y="391.7" class="st6" width="19.2" height="30.7"/>
						<polygon id="XMLID_370_" class="st7" points="267.5,391.7 250.5,391.7 248.3,391.7 248.3,394.1 248.3,422.4 250.5,422.4 
							250.5,394.1 267.5,394.1 						"/>
						<rect id="XMLID_369_" x="257.9" y="391.7" class="st8" width="1.3" height="30.7"/>
						<rect id="XMLID_368_" x="248.3" y="406.4" class="st8" width="19.2" height="1.3"/>
					</g>
					<g id="XMLID_362_">
						<rect id="XMLID_366_" x="300.8" y="391.7" class="st6" width="19.2" height="30.7"/>
						<polygon id="XMLID_365_" class="st7" points="320,391.7 302.9,391.7 300.8,391.7 300.8,394.1 300.8,422.4 302.9,422.4 
							302.9,394.1 320,394.1 						"/>
						<rect id="XMLID_364_" x="310.4" y="391.7" class="st8" width="1.3" height="30.7"/>
						<rect id="XMLID_363_" x="300.8" y="406.4" class="st8" width="19.2" height="1.3"/>
					</g>
					<g id="XMLID_357_">
						<rect id="XMLID_361_" x="353.2" y="391.7" class="st6" width="19.2" height="30.7"/>
						<polygon id="XMLID_360_" class="st7" points="372.4,391.7 355.4,391.7 353.2,391.7 353.2,394.1 353.2,422.4 355.4,422.4 
							355.4,394.1 372.4,394.1 						"/>
						<rect id="XMLID_359_" x="362.8" y="391.7" class="st8" width="1.3" height="30.7"/>
						<rect id="XMLID_358_" x="353.2" y="406.4" class="st8" width="19.2" height="1.3"/>
					</g>
					<g id="XMLID_352_">
						<rect id="XMLID_460_" x="405.7" y="391.7" class="st6" width="11.3" height="30.7"/>
						<polygon id="XMLID_445_" class="st7" points="417,391.7 417,394.1 407.8,394.1 407.8,422.4 405.7,422.4 405.7,391.7 						"/>
						<rect id="XMLID_354_" x="415.3" y="391.7" class="st8" width="1.3" height="30.7"/>
						<rect id="XMLID_335_" x="405.7" y="406.4" class="st8" width="11.3" height="1.3"/>
					</g>
				</g>
				<g id="XMLID_309_">
					<g id="XMLID_325_">
						<rect id="XMLID_446_" x="235.9" y="311" class="st6" width="6.7" height="30.7"/>
						<rect id="XMLID_327_" x="235.9" y="311" class="st7" width="6.7" height="2.5"/>
						<rect id="XMLID_326_" x="235.9" y="325.7" class="st8" width="6.7" height="1.3"/>
					</g>
					<g id="XMLID_320_">
						<rect id="XMLID_324_" x="275.9" y="311" class="st6" width="19.2" height="30.7"/>
						<polygon id="XMLID_323_" class="st7" points="295.1,311 278,311 275.9,311 275.9,313.5 275.9,341.7 278,341.7 278,313.5 
							295.1,313.5 						"/>
						<rect id="XMLID_322_" x="285.5" y="311" class="st8" width="1.3" height="30.7"/>
						<rect id="XMLID_321_" x="275.9" y="325.7" class="st8" width="19.2" height="1.3"/>
					</g>
					<g id="XMLID_315_">
						<rect id="XMLID_319_" x="328.3" y="311" class="st6" width="19.2" height="30.7"/>
						<polygon id="XMLID_318_" class="st7" points="347.5,311 330.5,311 328.3,311 328.3,313.5 328.3,341.7 330.5,341.7 
							330.5,313.5 347.5,313.5 						"/>
						<rect id="XMLID_317_" x="337.9" y="311" class="st8" width="1.3" height="30.7"/>
						<rect id="XMLID_316_" x="328.3" y="325.7" class="st8" width="19.2" height="1.3"/>
					</g>
					<g id="XMLID_310_">
						<rect id="XMLID_314_" x="380.7" y="311" class="st6" width="19.2" height="30.7"/>
						<polygon id="XMLID_313_" class="st7" points="400,311 382.9,311 380.7,311 380.7,313.5 380.7,341.7 382.9,341.7 382.9,313.5 
							400,313.5 						"/>
						<rect id="XMLID_312_" x="390.4" y="311" class="st8" width="1.3" height="30.7"/>
						<rect id="XMLID_311_" x="380.7" y="325.7" class="st8" width="19.2" height="1.3"/>
					</g>
				</g>
				<g id="XMLID_292_">
					<rect id="XMLID_308_" x="234.3" y="366.8" class="st9" width="182.7" height="6.8"/>
					<rect id="XMLID_307_" x="233" y="348.2" class="st9" width="184" height="2"/>
					<rect id="XMLID_306_" x="245.7" y="350.2" class="st9" width="1.1" height="17.2"/>
					<rect id="XMLID_305_" x="258.6" y="350.2" class="st9" width="1.1" height="17.2"/>
					<rect id="XMLID_304_" x="271.6" y="350.2" class="st9" width="1.1" height="17.2"/>
					<rect id="XMLID_303_" x="284.5" y="350.2" class="st9" width="1.1" height="17.2"/>
					<rect id="XMLID_302_" x="297.4" y="350.2" class="st9" width="1.1" height="17.2"/>
					<rect id="XMLID_301_" x="310.4" y="350.2" class="st9" width="1.1" height="17.2"/>
					<rect id="XMLID_300_" x="323.3" y="350.2" class="st9" width="1.1" height="17.2"/>
					<rect id="XMLID_299_" x="336.2" y="350.2" class="st9" width="1.1" height="17.2"/>
					<rect id="XMLID_298_" x="349.2" y="350.2" class="st9" width="1.1" height="17.2"/>
					<rect id="XMLID_297_" x="362.1" y="350.2" class="st9" width="1.1" height="17.2"/>
					<rect id="XMLID_296_" x="375" y="350.2" class="st9" width="1.1" height="17.2"/>
					<rect id="XMLID_295_" x="388" y="350.2" class="st9" width="1.1" height="17.2"/>
					<rect id="XMLID_294_" x="400.9" y="350.2" class="st9" width="1.1" height="17.2"/>
					<rect id="XMLID_293_" x="413.8" y="350.2" class="st9" width="1.1" height="17.2"/>
				</g>
			</g>
			<rect id="XMLID_119_" x="235.1" y="18" class="st10" width="8.3" height="406.5"/>
			<rect id="XMLID_230_" x="233" y="412.3" class="st10" width="184" height="12.1"/>
			<rect id="XMLID_232_" x="235.1" y="18" class="st10" width="181.9" height="12.1"/>
			<g id="XMLID_233_">
				<linearGradient id="XMLID_219_" gradientUnits="userSpaceOnUse" x1="267.1147" y1="32" x2="267.1147" y2="398.0341">
					<stop  offset="0" style="stop-color:#1C6286"/>
					<stop  offset="1" style="stop-color:#C9CEA6"/>
				</linearGradient>
				<rect id="XMLID_231_" x="265.9" y="30.1" class="st11" width="2.5" height="382.2"/>
				<linearGradient id="XMLID_249_" gradientUnits="userSpaceOnUse" x1="305.7049" y1="32" x2="305.7049" y2="398.0341">
					<stop  offset="0" style="stop-color:#1C6286"/>
					<stop  offset="1" style="stop-color:#C9CEA6"/>
				</linearGradient>
				<rect id="XMLID_234_" x="304.5" y="30.1" class="st12" width="2.5" height="382.2"/>
				<linearGradient id="XMLID_251_" gradientUnits="userSpaceOnUse" x1="344.2951" y1="32" x2="344.2951" y2="398.0341">
					<stop  offset="0" style="stop-color:#1C6286"/>
					<stop  offset="1" style="stop-color:#C9CEA6"/>
				</linearGradient>
				<rect id="XMLID_235_" x="343" y="30.1" class="st13" width="2.5" height="382.2"/>
				<linearGradient id="XMLID_252_" gradientUnits="userSpaceOnUse" x1="382.8853" y1="32" x2="382.8853" y2="398.0341">
					<stop  offset="0" style="stop-color:#1C6286"/>
					<stop  offset="1" style="stop-color:#C9CEA6"/>
				</linearGradient>
				<rect id="XMLID_236_" x="381.6" y="30.1" class="st14" width="2.5" height="382.2"/>
			</g>
			<rect id="XMLID_3_" x="408.7" y="18" class="st10" width="8.3" height="406.5"/>
		</g>
		<linearGradient id="XMLID_271_" gradientUnits="userSpaceOnUse" x1="158.3578" y1="424.7269" x2="88.1885" y2="145.7073">
			<stop  offset="0" style="stop-color:#FFCB95"/>
			<stop  offset="1" style="stop-color:#FAEBB1"/>
		</linearGradient>
		<rect id="XMLID_141_" x="-6.3" class="st15" width="242.2" height="502.9"/>
		<polygon id="XMLID_33_" class="st16" points="-32,502.9 175.7,424.4 612,424.4 612,612 -23,612 		"/>
		<polygon id="XMLID_10_" class="st17" points="-32,502.9 -24.4,595.3 595.3,595.3 416.6,433.5 416.6,424.4 175.7,424.4 		"/>
		<polygon id="XMLID_378_" class="st16" points="188.7,505.7 175.7,526.7 293,526.7 175.7,620.6 -57.4,620.6 -32,502.9 		"/>
		<g id="XMLID_45_">
			<path id="XMLID_50_" class="st5" d="M-3.2,288c0,0,39.2,19.3,69.8,2.7c0,0-24.3,6-49.6-10L-3.2,288z"/>
			<g id="XMLID_165_">
				<polygon id="XMLID_201_" class="st18" points="-0.9,295 -0.9,307 17,308.4 -0.9,308.4 -0.9,336.3 17,337.6 -0.9,337.6 
					-0.9,343.3 1.4,343.3 1.4,350.6 -0.9,350.6 -0.9,371.1 57.7,371.1 57.7,295 				"/>
			</g>
			<rect id="XMLID_42_" x="27.3" y="295" class="st5" width="30.4" height="76"/>
			<polygon id="XMLID_44_" class="st5" points="27.3,322.7 14.4,322.7 27.3,325 			"/>
			<polygon id="XMLID_48_" class="st19" points="27.3,350.6 42.5,350.6 27.3,353.3 			"/>
			<polygon id="XMLID_49_" class="st5" points="4.5,314.3 23,314.3 1.4,319 			"/>
		</g>
		<g id="XMLID_41_">
			<g id="XMLID_52_">
				<rect id="XMLID_51_" x="32.7" y="365.8" class="st20" width="47.4" height="2"/>
				<rect id="XMLID_54_" x="32.7" y="357" class="st20" width="47.4" height="2"/>
				<rect id="XMLID_53_" x="34.3" y="359" class="st19" width="45.8" height="6.8"/>
			</g>
			<g id="XMLID_56_">
				<rect id="XMLID_59_" x="35.2" y="355" class="st21" width="47.4" height="2"/>
				<rect id="XMLID_58_" x="35.2" y="346.3" class="st21" width="47.4" height="2"/>
				<rect id="XMLID_57_" x="36.8" y="348.3" class="st19" width="45.8" height="6.8"/>
			</g>
			<g id="XMLID_68_">
				<rect id="XMLID_71_" x="35.2" y="331.9" class="st22" width="47.4" height="2"/>
				<rect id="XMLID_70_" x="35.2" y="323.1" class="st22" width="47.4" height="2"/>
				<rect id="XMLID_69_" x="36.8" y="325.1" class="st19" width="45.8" height="6.8"/>
			</g>
			<g id="XMLID_72_">
				<rect id="XMLID_75_" x="32.7" y="321.1" class="st23" width="47.4" height="2"/>
				<rect id="XMLID_74_" x="32.7" y="312.3" class="st23" width="47.4" height="2"/>
				<rect id="XMLID_73_" x="34.3" y="314.3" class="st19" width="45.8" height="6.8"/>
			</g>
			<g id="XMLID_60_">
				<rect id="XMLID_63_" x="32.7" y="345" class="st22" width="47.4" height="1.3"/>
				<rect id="XMLID_62_" x="32.7" y="339.4" class="st22" width="47.4" height="1.3"/>
				<rect id="XMLID_61_" x="34.3" y="340.6" class="st19" width="45.8" height="4.3"/>
			</g>
			<g id="XMLID_64_">
				<rect id="XMLID_67_" x="33.5" y="338.6" class="st24" width="47.4" height="1"/>
				<rect id="XMLID_66_" x="33.5" y="334" class="st24" width="47.4" height="1"/>
				<rect id="XMLID_65_" x="35.1" y="335" class="st19" width="45.8" height="3.5"/>
			</g>
		</g>
		<linearGradient id="XMLID_272_" gradientUnits="userSpaceOnUse" x1="401.515" y1="18" x2="401.515" y2="-9.1662">
			<stop  offset="0" style="stop-color:#92A58F"/>
			<stop  offset="1" style="stop-color:#5E9689"/>
		</linearGradient>
		<polygon id="XMLID_140_" class="st25" points="235.9,18 595.3,18 595.3,-14 207.8,-14 		"/>
		<rect id="XMLID_143_" x="448" y="64.3" class="st26" width="159" height="145.9"/>
		<rect id="XMLID_144_" x="456.7" y="72.2" class="st27" width="141.7" height="130"/>
		<g id="XMLID_126_">
			<rect id="XMLID_145_" x="534.5" y="221.2" class="st28" width="79.5" height="212.3"/>
			<g id="XMLID_125_">
				<g id="XMLID_148_">
					<rect id="XMLID_146_" x="540.5" y="228.7" class="st26" width="66.5" height="37.3"/>
					<circle id="XMLID_147_" class="st28" cx="573.8" cy="247.3" r="3.3"/>
				</g>
				<g id="XMLID_150_">
					<rect id="XMLID_152_" x="540.5" y="272.6" class="st26" width="66.5" height="37.3"/>
					<circle id="XMLID_151_" class="st28" cx="573.8" cy="291.3" r="3.3"/>
				</g>
				<g id="XMLID_153_">
					<rect id="XMLID_155_" x="540.5" y="316.6" class="st26" width="66.5" height="37.3"/>
					<circle id="XMLID_154_" class="st28" cx="573.8" cy="335.2" r="3.3"/>
				</g>
				<g id="XMLID_156_">
					<rect id="XMLID_158_" x="540.5" y="360.5" class="st26" width="66.5" height="37.3"/>
					<circle id="XMLID_157_" class="st28" cx="573.8" cy="379.1" r="3.3"/>
				</g>
			</g>
		</g>
		<g id="XMLID_379_">
			<rect id="XMLID_149_" x="461.8" y="214.2" class="st26" width="72.7" height="219.3"/>
			<rect id="XMLID_159_" x="466" y="219" class="st28" width="63.5" height="46.6"/>
			<g id="XMLID_162_">
				<rect id="XMLID_160_" x="521.3" y="226" class="st29" width="4.3" height="39.6"/>
				<rect id="XMLID_161_" x="505" y="226" class="st30" width="16.3" height="39.6"/>
			</g>
			<g id="XMLID_380_">
				<rect id="XMLID_383_" x="511" y="226" class="st31" width="4.3" height="39.6"/>
				<rect id="XMLID_382_" x="494.7" y="226" class="st32" width="16.3" height="39.6"/>
			</g>
			<g id="XMLID_388_">
				<rect id="XMLID_390_" x="484.9" y="226" class="st33" width="4.3" height="39.6"/>
				<rect id="XMLID_389_" x="468.6" y="226" class="st34" width="16.3" height="39.6"/>
			</g>
			<rect id="XMLID_168_" x="466" y="272.7" class="st28" width="63.5" height="46.6"/>
			<g id="XMLID_164_">
				<rect id="XMLID_167_" x="521.3" y="279.7" class="st33" width="4.3" height="39.6"/>
				<rect id="XMLID_166_" x="505" y="279.7" class="st34" width="16.3" height="39.6"/>
			</g>
			<g id="XMLID_391_">
				<rect id="XMLID_393_" x="505.6" y="294.6" class="st33" width="4.3" height="24.8"/>
				<rect id="XMLID_392_" x="489.2" y="294.6" class="st34" width="16.3" height="24.8"/>
			</g>
			<rect id="XMLID_172_" x="466" y="326.5" class="st28" width="63.5" height="46.6"/>
			<g id="XMLID_169_">
				<rect id="XMLID_171_" x="521.3" y="333.5" class="st29" width="4.3" height="39.6"/>
				<rect id="XMLID_170_" x="505" y="333.5" class="st30" width="16.3" height="39.6"/>
			</g>
			<g id="XMLID_384_">
				<rect id="XMLID_387_" x="511.6" y="333.5" class="st31" width="4.3" height="39.6"/>
				<rect id="XMLID_386_" x="495.2" y="333.5" class="st32" width="16.3" height="39.6"/>
			</g>
			<g id="XMLID_394_">
				<rect id="XMLID_396_" x="495.2" y="344" class="st33" width="4.3" height="29.1"/>
				<rect id="XMLID_395_" x="478.9" y="344" class="st34" width="16.3" height="29.1"/>
			</g>
			<g id="XMLID_397_">
				<rect id="XMLID_399_" x="484.9" y="332.9" class="st29" width="4.3" height="40.2"/>
				<rect id="XMLID_398_" x="468.6" y="332.9" class="st30" width="16.3" height="40.2"/>
			</g>
			<rect id="XMLID_176_" x="466" y="380.2" class="st28" width="63.5" height="46.6"/>
			<g id="XMLID_173_">
				<rect id="XMLID_175_" x="521.3" y="387.2" class="st33" width="4.3" height="39.6"/>
				<rect id="XMLID_174_" x="505" y="387.2" class="st34" width="16.3" height="39.6"/>
			</g>
			<g id="XMLID_400_">
				<rect id="XMLID_402_" x="493.1" y="387.2" class="st31" width="4.3" height="39.6"/>
				<rect id="XMLID_401_" x="476.7" y="387.2" class="st32" width="16.3" height="39.6"/>
			</g>
		</g>
		<linearGradient id="XMLID_328_" gradientUnits="userSpaceOnUse" x1="599.1879" y1="431.5" x2="599.1879" y2="519.6887">
			<stop  offset="0" style="stop-color:#42687A"/>
			<stop  offset="1" style="stop-color:#42687A;stop-opacity:0"/>
		</linearGradient>
		<polygon id="XMLID_491_" class="st35" points="657,531.8 661.1,535 588.4,535 461.8,433.5 534.5,433.5 614,433.5 736.5,531.8 		
			"/>
		<g id="XMLID_403_">
			<g id="XMLID_163_">
				<path id="XMLID_435_" class="st36" d="M510,150.1h-39.5V85.6H510V150.1z M471.5,149.1H509V86.6h-37.5V149.1z"/>
			</g>
			<path id="XMLID_183_" class="st37" d="M490,105.1c2.8-2.8,5-5.5,7.5-8.3c-1.9-1.7-4.5-2.7-7.2-2.7c-6.1,0-11,4.9-11,11
				s4.9,11,11,11c3.9,0,7.4-2.1,9.3-5.1C496.3,109.1,493,107.4,490,105.1z"/>
			<g id="XMLID_178_">
				<rect id="XMLID_434_" x="474.8" y="119.8" class="st36" width="17.3" height="1"/>
			</g>
			<g id="XMLID_179_">
				<rect id="XMLID_433_" x="474.8" y="123.1" class="st36" width="23.3" height="1"/>
			</g>
			<g id="XMLID_180_">
				<rect id="XMLID_432_" x="474.8" y="126.8" class="st36" width="11.6" height="1"/>
			</g>
			<g id="XMLID_181_">
				<rect id="XMLID_431_" x="474.8" y="130.8" class="st36" width="17.3" height="1"/>
			</g>
			<g id="XMLID_212_">
				<rect id="XMLID_430_" x="505" y="170.1" class="st36" width="17.3" height="1"/>
			</g>
			<g id="XMLID_211_">
				<rect id="XMLID_429_" x="505" y="173.3" class="st36" width="23.3" height="1"/>
			</g>
			<g id="XMLID_214_">
				<rect id="XMLID_427_" x="530.7" y="170.1" class="st36" width="23.3" height="1"/>
			</g>
			<g id="XMLID_210_">
				<rect id="XMLID_426_" x="505" y="177.1" class="st36" width="11.6" height="1"/>
			</g>
			<g id="XMLID_218_">
				<rect id="XMLID_425_" x="530.7" y="173.3" class="st36" width="23.3" height="1"/>
			</g>
			<g id="XMLID_217_">
				<rect id="XMLID_424_" x="530.7" y="177.1" class="st36" width="11.6" height="1"/>
			</g>
			<g id="XMLID_177_">
				<polygon id="XMLID_421_" class="st36" points="495.8,145.9 491.9,136.6 485.2,145.9 480.5,139.2 475.1,145.4 474.4,144.7 
					480.6,137.5 485.3,144.2 492.1,134.5 496.2,144.2 499.6,140.8 502.9,144.7 502.1,145.4 499.5,142.3 				"/>
			</g>
			<g id="XMLID_182_">
				<polygon id="XMLID_420_" class="st36" points="583.7,122.6 520.8,122.6 520.8,86.1 521.8,86.1 521.8,121.6 583.7,121.6 				"/>
			</g>
			<g id="XMLID_185_">
				<rect id="XMLID_419_" x="521.3" y="88.9" class="st36" width="4.3" height="1"/>
			</g>
			<g id="XMLID_186_">
				<rect id="XMLID_418_" x="521.3" y="93.6" class="st36" width="4.3" height="1"/>
			</g>
			<g id="XMLID_187_">
				<rect id="XMLID_417_" x="521.3" y="98.2" class="st36" width="4.3" height="1"/>
			</g>
			<g id="XMLID_188_">
				<rect id="XMLID_416_" x="521.3" y="102.9" class="st36" width="4.3" height="1"/>
			</g>
			<g id="XMLID_189_">
				<rect id="XMLID_415_" x="521.3" y="107.6" class="st36" width="4.3" height="1"/>
			</g>
			<g id="XMLID_190_">
				<rect id="XMLID_414_" x="521.3" y="112.2" class="st36" width="4.3" height="1"/>
			</g>
			<g id="XMLID_191_">
				<rect id="XMLID_413_" x="521.3" y="116.9" class="st36" width="4.3" height="1"/>
			</g>
			<g id="XMLID_192_">
				<rect id="XMLID_412_" x="531.8" y="117.8" class="st36" width="1" height="4.3"/>
			</g>
			<g id="XMLID_193_">
				<rect id="XMLID_411_" x="540" y="117.8" class="st36" width="1" height="4.3"/>
			</g>
			<g id="XMLID_194_">
				<rect id="XMLID_410_" x="548.2" y="117.8" class="st36" width="1" height="4.3"/>
			</g>
			<g id="XMLID_195_">
				<rect id="XMLID_409_" x="556.3" y="117.8" class="st36" width="1" height="4.3"/>
			</g>
			<g id="XMLID_196_">
				<rect id="XMLID_408_" x="564.5" y="117.8" class="st36" width="1" height="4.3"/>
			</g>
			<g id="XMLID_197_">
				<rect id="XMLID_407_" x="572.7" y="117.8" class="st36" width="1" height="4.3"/>
			</g>
			<g id="XMLID_198_">
				<rect id="XMLID_406_" x="580.8" y="117.8" class="st36" width="1" height="4.3"/>
			</g>
			<g id="XMLID_184_">
				<polygon id="XMLID_405_" class="st36" points="548.7,113.8 540.6,100 536.2,113.6 530.3,108.4 531,107.7 535.8,111.9 
					540.4,97.5 548.6,111.7 558.7,93 565.1,104.2 578,89.1 578.7,89.7 564.9,105.9 558.7,95.1 				"/>
			</g>
			<rect id="XMLID_199_" x="521.3" y="131.3" class="st36" width="29" height="4.3"/>
			<circle id="XMLID_200_" class="st36" cx="570.2" cy="139.5" r="8.2"/>
			<rect id="XMLID_202_" x="521.3" y="139.5" class="st37" width="14.5" height="3.9"/>
			<rect id="XMLID_203_" x="521.3" y="147.6" class="st36" width="33.2" height="1.9"/>
			<rect id="XMLID_204_" x="471" y="156.4" class="st36" width="77.7" height="2.7"/>
			<rect id="XMLID_205_" x="556.8" y="156.4" class="st36" width="31.2" height="2.7"/>
			<rect id="XMLID_206_" x="471" y="163.7" class="st37" width="28.5" height="24.7"/>
			<rect id="XMLID_207_" x="505" y="163.7" class="st37" width="18.5" height="4.7"/>
			<g id="XMLID_404_">
				<g id="XMLID_209_">
					<rect id="XMLID_442_" x="505" y="191" class="st36" width="17.3" height="1"/>
				</g>
				<g id="XMLID_213_">
					<rect id="XMLID_441_" x="505" y="194.8" class="st36" width="17.3" height="1"/>
				</g>
				<g id="XMLID_216_">
					<rect id="XMLID_440_" x="530.7" y="191" class="st36" width="17.3" height="1"/>
				</g>
				<g id="XMLID_215_">
					<rect id="XMLID_439_" x="530.7" y="194.8" class="st36" width="17.3" height="1"/>
				</g>
			</g>
		</g>
		<polygon id="XMLID_208_" class="st38" points="235.9,18 1.4,214.2 1.4,0 220.1,0 		"/>
		<linearGradient id="XMLID_332_" gradientUnits="userSpaceOnUse" x1="184.2794" y1="506.6728" x2="175.0966" y2="583.0117">
			<stop  offset="0" style="stop-color:#42687A"/>
			<stop  offset="1" style="stop-color:#42687A;stop-opacity:0"/>
		</linearGradient>
		<path id="XMLID_423_" class="st39" d="M352.5,601.6c-0.9-3.6-2.3-7.2-4.3-10.7s-4.5-7-7.6-10.5c-3.8-4.3-8.6-8.6-16.8-12.1
			c-0.6-0.3-1.3-0.5-2-0.8c-0.2-0.1-0.4-0.2-0.7-0.2c-0.5-0.2-1-0.4-1.5-0.5c-0.3-0.1-0.5-0.2-0.8-0.3c-0.5-0.2-1-0.3-1.5-0.5
			c-0.3-0.1-0.5-0.2-0.8-0.2c-0.6-0.2-1.3-0.4-1.9-0.6c-0.2,0-0.3-0.1-0.5-0.1c-0.7-0.2-1.5-0.4-2.2-0.6c-0.3-0.1-0.7-0.2-1-0.2
			c-0.5-0.1-1-0.2-1.5-0.4c-0.4-0.1-0.8-0.2-1.2-0.3c-0.5-0.1-0.9-0.2-1.4-0.3c-0.4-0.1-0.8-0.2-1.2-0.3c-0.5-0.1-1-0.2-1.5-0.3
			c-0.7-0.1-1.4-0.3-2.2-0.4c-0.5-0.1-1-0.2-1.5-0.3c-0.5-0.1-1-0.2-1.5-0.3c-0.4-0.1-0.8-0.1-1.2-0.2c-0.5-0.1-1.1-0.2-1.6-0.3
			c-0.4-0.1-0.7-0.1-1.1-0.2c-0.6-0.1-1.1-0.2-1.7-0.2c-0.3,0-0.6-0.1-0.9-0.1c-1.4-0.2-2.9-0.4-4.3-0.5c0,0,0,0-0.1,0v0
			c-3.4-0.4-6.8-0.7-10.3-1c-1.7-0.1-3.5-0.2-5.2-0.3v-29.9h18.3c1.3,0,2.3-1,2.3-2.3h-46.7c0,1.3,1,2.3,2.3,2.3h18.9v29.7
			c-10.1-0.4-20.3-0.4-30.5-0.2c0.5-4.8,1-9.5,1.6-14.3c-1.2-0.2-2.4-0.3-3.7-0.5c0.8-0.3,1.5-0.7,2.3-1c0.9-0.4,1.7-0.8,2.1-1.3
			c0.4-0.5,0.2-1-0.8-1.4c-0.8-0.3-1.9-0.3-3-0.4c-6-0.5-11.8-1.3-17-2.5c-3-0.7-5.9-1.5-9.3-1.8c-2.4-0.2-7.9-0.7-9.3,0.2
			c-1.2,0.8,1.8,2,3.6,2.4c2.3,0.5,4.9,0.8,7.4,1.1c2.8,0.4,5.6,0.8,8.2,1.3c1.3,0.3,2.6,0.5,3.4,1c0.4,0.2,0.5,0.5,0.7,1
			c-1.4-0.2-2.8-0.3-4.2-0.4c-5.3,4-12.3,7.7-19.7,11.3l-31-11.6l20.2-35.9h-9.1L161,538.8l-8.9-3.3l-7.4,0.4
			c-1.5-1.3,0.3-2.7,0-4.1c0-0.2-0.1-0.4-0.4-0.5c-0.5-0.2-1.5-0.3-2.3-0.3c-5.8-0.1-34.7-0.2-38.2-0.2c-0.5,0-0.9,0-1.3,0.1
			c-0.8,0.2-0.5,0.6-0.1,0.9c2,1.3,6.3,1.9,10.3,2.3c6.7,0.6,13.8,1,20.1,2c0.4,0.1,0.9,0.2,1.5,0.3l-4.7,0.2l14.2,8.4l-25.5,41.9
			H-6.3v6.2H92l-24.1,19.9l0,0l-0.9,0.8h6.7h27.7l16.8-12.9h18c0-1.9-0.7-3.6-1.7-5h6.2l12.5,3.4c3.2,0.9,7.5,1.1,11.3,0.7l11.1-1.3
			c16,0.1,32.2,0.9,47.9,2.1c5.3,3.1,10.5,6.1,15.8,9.2c0.8,0.5,1.6,0.9,2.5,1.4c-2.5,0.7-5.2,1.4-8.1,1.8c-4.5-0.7-8.6-0.8-8.6-0.8
			l-4,3.3l-0.4,0.3l-1.3,1.1l-5.4-0.6l0.6,4.5l-5.6,4.6c-2.7-0.4-5.7-0.7-8.7-0.5c-1.5,0.1-3,0.2-4.2,0.5c-2.8,0.8-2.9,2.3-1,3.3
			c0.4,0.2,0.8,0.4,1.2,0.5h0c0,0,0,0,0,0c1,0.4,2.1,0.6,3.4,0.9c0,0,0,0,0.1,0c0.3,0,0.5,0.1,0.8,0.1c0.1,0,0.3,0,0.4,0.1
			c0.2,0,0.4,0.1,0.6,0.1c0.2,0,0.4,0.1,0.6,0.1c0.2,0,0.3,0,0.5,0.1c0.4,0,0.8,0.1,1.2,0.1c3.4,0.3,7,0.4,10.4,0.7
			c6.5,0.6,12.3,1.8,18.7,2.6c2.8,0.3,5.8,0.5,8.8,0.5c0.8,0,1.7,0,2.5,0c0.8,0,1.6-0.1,2.4-0.2c1.2-0.1,2.3-0.3,3.4-0.5
			c0.7-0.1,1.4-0.3,2-0.5c3.8-1.1,5.3-2.9,6.2-4.6c0.1-0.2,0.2-0.4,0.3-0.6c0.1-0.1,0.1-0.2,0.2-0.4c0-0.1,0.1-0.2,0.1-0.3
			c0.1-0.2,0.1-0.4,0.2-0.5c0,0,0-0.1,0.1-0.1c0.1-0.2,0.2-0.4,0.2-0.7c0,0,0,0,0,0c0.9-2.8,0.8-6-1.6-8.4l0,0l0,0
			c-0.1-0.1-0.1-0.1-0.2-0.2c-0.3,0-0.7,0-1,0c0.3-0.3,0.6-0.7,0.9-1c0.1-0.1,0.2-0.2,0.3-0.3c0.4,0,0.8,0.1,1.1,0.1
			c0.2,0,0.4,0,0.6,0.1c0.6,0.1,1.3,0.1,1.9,0.1c0.1,0,0.2,0,0.4,0c0.7,0,1.4,0,2.1,0c0.2,0,0.3,0,0.5,0c0.6,0,1.1-0.1,1.7-0.1
			c0.2,0,0.3,0,0.5,0c0.7-0.1,1.3-0.2,1.9-0.3c0.1,0,0.3,0,0.4-0.1c0.5-0.1,1-0.2,1.5-0.3c0.2,0,0.3-0.1,0.5-0.1
			c0.6-0.1,1.2-0.3,1.8-0.5c0.1,0,0.1,0,0.2,0c0.5-0.2,1-0.3,1.6-0.5c0.1,0,0.1,0,0.2-0.1c0,0,0,0,0,0c1.9-0.6,3.7-1.4,5.4-2.1
			c10.1-4.3,16.7-9.5,20.4-14.9c2.1-2.9,3.3-5.9,4.1-8.9c2,2.6,2.9,5.2,2.6,7.9c-0.5,4.8-9.7,10.4-1.6,14.2
			c9.9,4.7,28.2,4.7,34.8,4.6c0.8,0,1.5,0,2.2-0.1c0.2,0,0.3,0,0.3,0c0,0,0,0,0,0c2.1-0.2,3.9-0.7,5.3-1.5
			C354.5,610.4,353.4,605.4,352.5,601.6z M150.5,549l3.6,2.1l-20.2,35.8h-6.5L150.5,549z M208.8,589.5c-11.5,0.6-21.8,2.6-32.2,4.4
			c-0.3,0.6-0.5,1.2-0.5,1.8l0,0h-4.4V593v-6.2H143l17.9-31.7l15.2,9.1c-3.7,1.8-7.4,3.7-8.9,5.9c-7.8,11.2,25.6,13.3,47.2,13.4
			c12.9,0.1,25.4-0.6,38.3-0.9c-0.4,3.5-1.4,7-2.3,10.5C238.7,590.1,223.3,588.7,208.8,589.5z"/>
		<g id="XMLID_31_">
			<path id="XMLID_5_" class="st40" d="M180,354.7l-4.3-2.3l-11.1-3.9c-3.9-1.3-8.1-0.6-11.3,1.9l-12.5,9.9h35.4l5.6,2.7L180,354.7z
				"/>
			<polygon id="XMLID_36_" class="st41" points="164.6,386.3 155.5,386.3 179.6,505.7 188.7,505.7 			"/>
			<rect id="XMLID_21_" x="267.5" y="458.5" class="st42" width="4.9" height="61.6"/>
			<path id="XMLID_25_" class="st42" d="M293,526.7h-46.7l0,0c0-3.6,3-6.6,6.6-6.6h33.5C290,520.1,293,523,293,526.7L293,526.7z"/>
			<path id="XMLID_23_" class="st43" d="M280.6,420.6c17.6-15.6,27.7-39.3,26.9-62.8c-0.5-13.9-9.7-30.1-1.6-41.4
				c12.2-17,37.3-13,37.3-13c6,32.1-4,65.9-14.3,96.8c-4.3,13-9,26.4-18.6,36.3c-5.5,5.7-12.3,9.9-19.3,13.5
				c-19.5,9.8-43,14.7-63.4,6.7c-1.9-0.7-3.8-1.6-5-3.2c-1.6-2-1.9-4.8-1.6-7.4c1.6-11.2,13.4-18,24.4-20.4
				C256.5,423.4,272.1,428.1,280.6,420.6z"/>
			<path id="XMLID_19_" class="st43" d="M231.2,449c20.1,1.6,42,2.9,58.9-8.3c9-5.9,15.5-14.8,21.4-23.9
				c10-15.4,13.3-29.5,10.8-47.9c-1.7-12.3-1.9-24.9-0.6-37.3c1.2-11.3,5.2-24.3,15.9-27.9c4.5-1.5,8.5-0.3,11,3.9
				c6,10.1,5,24.8,4,36c-1.8,20.9-5.8,41.6-11.9,61.7c-3.8,12.6-8.6,25.1-16.8,35.3c-11.3,14.1-28.4,22.7-46.1,26.4s-36,3-53.9,0.9
				L231.2,449z"/>
			<path id="XMLID_381_" class="st44" d="M348.4,307.6c-2.5-4.2-6.5-5.4-11-3.9c-10.7,3.7-14.7,16.7-15.9,27.9
				c-1.3,12.4-1.1,24.9,0.6,37.3c2.6,18.4-0.7,32.5-10.8,47.9c-4.4,6.8-9.2,13.5-15.2,19c-3.6,9.3-6.5,18.7-8.3,28.3
				c13.8-4.5,26.7-12.3,35.8-23.6c8.2-10.2,13-22.8,16.8-35.3c6.1-20.1,10.1-40.8,11.9-61.7C353.4,332.3,354.5,317.7,348.4,307.6z"
				/>
			<path id="XMLID_18_" class="st42" d="M112.6,521.6c-4,1.1-8.3,2.9-10.3,6.6c-0.4,0.8-0.7,2,0.1,2.6c0.4,0.3,0.9,0.3,1.3,0.3
				c3.4,0,32.4-0.4,38.2-0.6c0.8,0,1.8-0.1,2.3-0.8c0.3-0.4,0.4-1,0.4-1.5c0.3-4.3-1.7-8.8,0.3-12.6c0.7-1.3,1.8-2.3,2.3-3.7
				s0.4-3.2-0.9-3.8c-4.2-2-10.3,5.9-13.6,7.6C126.4,518.8,119.3,519.7,112.6,521.6z"/>
			<path id="XMLID_15_" class="st42" d="M222.7,518.8c-0.8,1.2-2.1,2.1-3.4,2.8c-2.6,1.5-5.4,2.8-8.2,3.9c-2.5,0.9-5.1,1.7-7.4,3.2
				c-1.8,1.1-4.8,4.5-3.6,6.9c1.4,2.8,6.9,1.3,9.3,0.6c3.5-0.9,6.3-3.3,9.3-5.2c5.2-3.4,10.9-5.8,17-7.2c1.1-0.2,2.2-0.5,3-1.2
				c1-1,1.2-2.6,0.8-3.9c-0.4-1.4-1.3-2.5-2.1-3.6c-2.6-3.4-5.1-6.8-7.7-10.2c-0.5-0.7-1.1-1.4-1.8-1.7
				C222,500.9,224.5,516.1,222.7,518.8z"/>
			<polygon id="XMLID_17_" class="st42" points="179,443 129.5,514 152,517.2 205,477 			"/>
			<polygon id="XMLID_11_" class="st40" points="215,284 214.2,300.7 220.9,298.5 			"/>
			<path id="XMLID_6_" class="st40" d="M254.7,286c1.1,7.5,3.1,15.7,7.1,22.1c-4.8,4.2-9.6,8.4-14.4,12.5
				c-5.1-5.1-10.7-10.4-17.8-11.9c1.1-5.2,4.1-9.9,7.7-13.8C241.9,290,248,285.6,254.7,286z"/>
			<path id="XMLID_377_" class="st45" d="M254.7,286c-6.8-0.4-12.9,4-17.4,9.1c-3.5,3.9-6.6,8.6-7.7,13.8c1.8,0.3,3.4,0.9,5,1.7
				c8.2-2.6,15.7-7.1,23.3-11C256.4,295.1,255.4,290.4,254.7,286z"/>
			<path id="XMLID_24_" class="st40" d="M244.5,292c2.3,18.6-19.3,20.5-19.3,20.5l-4-9.5l-0.4-0.9l-13.2-31.7l19.3-12.1l23,3.8
				C250,262,254.2,282.5,244.5,292z"/>
			<path id="XMLID_2_" class="st46" d="M258.7,264c-0.9-4.9-2.4-10-6.2-13.3c-5.1-4.4-12.8-4-19.2-1.8c-6.4,2.2-12.2,5.9-18.7,7.6
				c-3.4,0.9-7,1.2-10.4,2.1c-3.4,0.9-6.8,2.7-8.7,5.7c-1.9,3-1.8,7.5,1,9.7c1.2,0.9,2.7,1.4,4.2,1.6c6.5,0.8,12.5-3.2,17.4-7.5
				c0.9,3.2,3.3,6.3,6.2,8.1c2.8,1.8,6.4,2.4,9.6,1.7c1.5,3,2.9,6.3,4.2,9.4c0.2-3.4,1-6.7,2.2-9.8c0.5-1.2,1.1-2.5,2.3-2.9
				c1.1-0.3,2.3,0.1,3,1c0.8,0.8,1.1,1.9,1.4,3c1.1,4.6,0.2,9.5-2.3,13.5c4,2.7,8.6,4.4,13.4,4.5C261.5,287.5,260.5,273.5,258.7,264
				z"/>
			<g id="XMLID_372_">
				<path id="XMLID_374_" class="st47" d="M258.7,264c-0.9-4.9-2.4-10-6.2-13.3c-5.1-4.4-12.8-4-19.2-1.8
					c-6.4,2.2-12.2,5.9-18.7,7.6c-3.4,0.9-7,1.2-10.4,2.1c-2.8,0.8-5.5,2.1-7.5,4.1c2.1-0.9,4.3-1.6,6.5-2
					c5.3-1.1,10.9-1.3,16.1-2.7c11-2.8,24.7-13.6,32-0.6c6.4,11.3,8.5,25.3,6.9,38.6C261.5,287,260.5,273.3,258.7,264z"/>
			</g>
			<path id="XMLID_7_" class="st48" d="M305.8,402.6c-0.2-16.1-1.3-32.3-5.1-47.9c-3.8-15.7-10.3-30.8-20.4-43.3
				c-5.9-7.3-13.4-15.3-23.4-10.6c-7.7,3.6-13.3,11.7-17.5,18.8c-5.3,8.9-10.5,17.9-15.8,26.8c-15.7,3.3-31.9,5.6-47.9,6
				c0.5,4.7,0.1,8.7,0.9,13.4c10.3,5.5,20.6,11.1,32.2,12.9c14.5,2.3,29.9-1.6,41.5-10.7c1.1,11.2,2.1,22.5,2.5,33.8L305.8,402.6z"
				/>
			<g id="XMLID_291_">
				<path id="XMLID_373_" class="st49" d="M262.4,370.8c1.4-4.6,4.3-8.7,6.6-12.9c2.3-4.2,4.2-9.2,3-13.9
					c-2.1,1.1-11.7,16.3-21.8,23.9c1.1,11.2,2.1,22.5,2.5,33.8l6.9,0.1c0.9-5.6,1.5-11.2,1.6-16.8
					C261.3,380.2,261,375.4,262.4,370.8z"/>
				<path id="XMLID_375_" class="st49" d="M230,343.6c4.4-7.8,8.7-15.7,13.1-23.5c4-7.2,8.9-15.1,16.9-17c4.7-1.2,9.7,0,14.2,1.9
					c0.3,0.1,0.5,0.2,0.8,0.3c-4.9-4.8-10.8-8-18-4.6c-7.7,3.6-13.3,11.7-17.5,18.8c-5.3,8.9-10.5,17.9-15.8,26.8
					c4.2,0,8.1-0.9,12.3-1.1C233.9,344.7,231.9,344.2,230,343.6z"/>
			</g>
			
				<ellipse id="XMLID_8_" transform="matrix(0.9453 -0.3263 0.3263 0.9453 -81.4695 86.7998)" class="st50" cx="218" cy="286.3" rx="1" ry="2.4"/>
			<g id="XMLID_12_">
				<path id="XMLID_14_" class="st50" d="M213.8,281.9c-0.2,0-0.3-0.1-0.4-0.3c-0.1-0.2,0-0.5,0.2-0.7c1.5-0.8,3-1.5,4.5-2.2
					c0.3-0.1,0.5,0,0.7,0.3c0.1,0.3,0,0.5-0.3,0.7c-1.5,0.6-3,1.4-4.4,2.2C213.9,281.9,213.8,281.9,213.8,281.9z"/>
			</g>
			<g id="XMLID_13_">
				<path id="XMLID_22_" class="st50" d="M229.1,297.9c-2,2.4-4.9,3.9-7.8,5.1l-0.4-0.9c2.8-1.1,5.5-2.5,7.4-4.8
					c0.2-0.2,0.5-0.2,0.7-0.1C229.2,297.3,229.3,297.7,229.1,297.9z"/>
			</g>
			<path id="XMLID_16_" class="st51" d="M236.2,449.7c1.1,20.3,1.5,40.6,2.5,60.9c-6.2,2.3-13.1,4.8-19.5,6.6
				c-10.6-23.1-27.4-42.7-42-63.5c-4-5.8-8.3-11.7-10-18.6c-7.8-32.5,25.6-38.7,47.2-39c12.9-0.2,25.4,1.8,38.3,2.5l53.2,4.1
				c-0.8,16-11.1,31-24.8,39.3C267.3,450.3,252.1,451.4,236.2,449.7z"/>
			<g id="XMLID_9_">
				<path id="XMLID_376_" class="st42" d="M291.5,429.7c-15.1,13.2-39.2,15.9-55.6,4.5c-2.1-1.5-4.1-3.1-6.5-4
					c-8.9-3.3-2.9,3.6-0.2,6.9c2.5,3.1,5,7.4,7.3,12.6c15.8,1.6,30.9,0.5,44.5-7.8c10.3-6.3,18.7-16.3,22.6-27.7
					C300.5,420.1,296.5,425.3,291.5,429.7z"/>
			</g>
			<rect id="XMLID_26_" x="-6.3" y="368.3" class="st52" width="178" height="18"/>
			<polygon id="XMLID_27_" class="st53" points="98.5,368.3 171.7,368.3 171.7,360.3 95.2,360.3 			"/>
			<polygon id="XMLID_28_" class="st53" points="98.5,368.3 73.7,308.3 67,308.3 92,368.3 			"/>
			<polygon id="XMLID_29_" class="st54" points="73.7,308.3 101.3,308.3 124.7,360.3 95.2,360.3 			"/>
			<polygon id="XMLID_1_" class="st53" points="67,308.3 101.3,308.3 124.7,360.3 122,360.3 100.3,310.5 67.9,310.5 			"/>
			<polygon id="XMLID_30_" class="st41" points="158.6,540.7 149.5,540.7 118.3,386.3 127.4,386.3 			"/>
			<g id="XMLID_81_">
				<g id="XMLID_47_">
					<path id="XMLID_78_" class="st55" d="M124.9,369.2L124.9,369.2c-6.3,0-11.3-5.1-11.3-11.3v-12.1h22.6v12.1
						C136.2,364.2,131.1,369.2,124.9,369.2z"/>
					<g id="XMLID_106_">
						<path id="XMLID_108_" class="st55" d="M118.4,362.5h-4c-3.7,0-6.7-3-6.7-6.7c0-3.7,3-6.7,6.7-6.7h2.5v2h-2.5
							c-2.6,0-4.7,2.1-4.7,4.7c0,2.6,2.1,4.7,4.7,4.7h4V362.5z"/>
					</g>
				</g>
			</g>
		</g>
		<g id="XMLID_77_">
			<path id="XMLID_35_" class="st56" d="M436.1,329.2c-8-10.7-10.2-25.4-5.7-38C436.1,302.2,437.2,317,436.1,329.2z"/>
			<path id="XMLID_38_" class="st56" d="M436.4,328.1c-2.4-5.6-5.1-11.5-10.1-14.8c-5.1-3.4-11.6-3.6-17.6-3.2
				c2.5,5.1,5.8,9.3,10.7,12.2c2.1,1.3,4.4,2.3,6.8,3.2C428.8,326.6,433.6,327.2,436.4,328.1z"/>
			<path id="XMLID_39_" class="st56" d="M461,313.8c-13.1-1-20.4,5-25.9,16.4c0.6-1.1,13.9-3.3,15.9-4c2.5-0.9,5.7-1.4,7.7-3.3
				C461.6,320.3,460.3,317.3,461,313.8z"/>
			<path id="XMLID_40_" class="st57" d="M435.6,328.6c-8.4-2.7-35.2-2.9-38.2,0.1c-0.3,0.3,8.1,6.6,9.1,7c5.6,2.8,10.7,1.6,16-1.3
				C426.7,332.2,431.3,330.9,435.6,328.6z"/>
			<path id="XMLID_46_" class="st58" d="M442.3,344c0,0,13-17.6,28.7-13.8C471,330.2,472.7,338.4,442.3,344z"/>
			<path id="XMLID_82_" class="st58" d="M442.3,344c0,0,24.3-4.4,39,6.9C481.3,351,462,361.3,442.3,344z"/>
			<path id="XMLID_131_" class="st58" d="M432.3,347.3c0,0-20.3,0.7-29.7,16.3C402.7,363.7,423.8,366.2,432.3,347.3z"/>
			<g id="XMLID_133_">
				<rect id="XMLID_138_" x="434.4" y="328.1" class="st56" width="2" height="54.7"/>
			</g>
			<g id="XMLID_134_">
				<rect id="XMLID_137_" x="431.8" y="347.3" class="st58" width="1" height="35.6"/>
			</g>
			<g id="XMLID_135_">
				<rect id="XMLID_136_" x="441.8" y="344" class="st58" width="1" height="37.7"/>
			</g>
			<rect id="XMLID_32_" x="417" y="375" class="st59" width="40" height="58.5"/>
			<rect id="XMLID_34_" x="417" y="381.8" class="st60" width="40" height="2.2"/>
			<rect id="XMLID_37_" x="417" y="388.5" class="st60" width="40" height="2.2"/>
			<rect id="XMLID_20_" x="417" y="375" class="st60" width="3.3" height="58.5"/>
		</g>
		<g id="XMLID_122_">
			<linearGradient id="XMLID_334_" gradientUnits="userSpaceOnUse" x1="506.6781" y1="426.5" x2="506.6781" y2="485.5021">
				<stop  offset="0" style="stop-color:#42687A"/>
				<stop  offset="1" style="stop-color:#42687A;stop-opacity:0"/>
			</linearGradient>
			<path id="XMLID_123_" class="st61" d="M524.6,482.2c0,0-2.6-3.9-35.8-6.5C488.8,475.6,510.9,483.9,524.6,482.2z"/>
			<linearGradient id="XMLID_353_" gradientUnits="userSpaceOnUse" x1="470.5763" y1="426.5" x2="470.5763" y2="485.5021">
				<stop  offset="0" style="stop-color:#42687A"/>
				<stop  offset="1" style="stop-color:#42687A;stop-opacity:0"/>
			</linearGradient>
			<path id="XMLID_127_" class="st62" d="M506.6,484c-1.9-0.3-12.1-1-16.3-1.5L466.7,461h5.4l16.1,14.6h0.5c0,0,0,0,0,0
				c0,0,26.6,2.1,35.4-3.3c0,0-24.3-4.8-35.1,3.1L473.2,461h14.2l-3.5-3.2l-1.2-1l-2.3-2.1l-1.2-1L457,433.5h-36.7H417l22.2,20.1
				l1.2,1l2.3,2.1l1.2,1l3.5,3.2h3.3h11.5l13.8,12.6c-18-8.4-37.1-7.2-37.1-7.2c15.8,6.7,34.3,7.6,37.6,7.7l0,0h1l-14.4-13h1.6
				l23.8,21.6c-4.9-0.9-9.8-1.5-14.7-2.5c-6.7-1.3-12.4-1.9-16.6-0.6c-0.7,0.2-5.9,3.2-5.4,3.3c4.4,1.3,29,1.3,37.2,0.2l0.1,0.1h1
				c0,0.1,0,0.1-0.1,0.2c-2.4,0.3-6,0.6-7.8,1.1c-1.8,0.4-3.6,0.9-5.1,1.5c-3.4,1.4-4.4,3.4-4.4,5.8c6.3,0.2,12.6,0.1,15.9-1.5
				c0.9-0.4,1.5-0.9,1.9-1.5c1.9,3.9,6.6,8.1,13.7,11.9c-0.1-5-6.1-11.6-13.2-17.2c0,0,0,0,0,0c10.5,4.7,20.4,7.1,32,6.6
				c-2.5-1.7-2.8-3-7.1-4.3C513,484.7,509.6,484.4,506.6,484z"/>
		</g>
	</g>
</g>
</svg>
