<?xml version="1.0" encoding="utf-8" standalone="yes"?>
<!DOCTYPE svg PUBLIC "-//W3C//DTD SVG 1.1//EN" "http://www.w3.org/Graphics/SVG/1.1/DTD/svg11.dtd">
<svg width="996" height="714" viewBox="0 0 996 714" style="fill:none;stroke:none;fill-rule:evenodd;clip-rule:evenodd;stroke-linecap:round;stroke-linejoin:round;stroke-miterlimit:1.5;" version="1.1" xmlns="http://www.w3.org/2000/svg" xmlns:xlink="http://www.w3.org/1999/xlink"><style class="text-font-style fontImports" data-font-family="Roboto">@import url('https://fonts.googleapis.com/css2?family=Roboto:wght@400;700&amp;display=block');</style><g id="items" style="isolation: isolate"><g id="blend" style="mix-blend-mode: normal"><g id="g-root-sy_3_cu_1q9gw7fddeqrr-fill" data-item-order="-317368" transform="translate(590, 182.00048828125)"></g><g id="g-root-sy_2_cu_1cy0du3ddesco-fill" data-item-order="-317364" transform="translate(434, 409.99951171875)"></g><g id="g-root-sy_1_cu_zn6cjvddeqrt-fill" data-item-order="-317360" transform="translate(278, 182.00048828125)"></g><g id="g-root-sy_-1_line_mbpu6jddescq-fill" data-item-order="-317354" transform="translate(14, 410)"></g><g id="g-root-tx_challeng_4kftorddg83x-fill" data-item-order="0" transform="translate(266, 38)"><g id="tx_challeng_4kftorddg83x-fill" stroke="none" fill="#484848"><g><text style="font: bold 25px &quot;Roboto&quot;, sans-serif; white-space: pre;" font-weight="bold" font-size="25px" font-family="'Roboto', sans-serif"><tspan x="16.17" y="40.5" dominant-baseline="ideographic">Challenges in System Understanding and </tspan><tspan x="157.88" y="70.5" dominant-baseline="ideographic">Communication</tspan></text></g></g></g><g id="g-root-tx_document_18i6vpnddg6j0-fill" data-item-order="0" transform="translate(26, 170)"><g id="tx_document_18i6vpnddg6j0-fill" stroke="none" fill="#484848"><g><text style="font: 20px &quot;Roboto&quot;, sans-serif; white-space: pre;" font-size="20px" font-family="'Roboto', sans-serif"><tspan x="12.5" y="34" dominant-baseline="ideographic">Documentation Issues</tspan></text></g></g></g><g id="g-root-ic_ques_zofaq3ddg6by-fill" data-item-order="0" transform="translate(242, 164)"></g><g id="g-root-tx_outsourc_djtogbdder5y-fill" data-item-order="0" transform="translate(326, 170)"><g id="tx_outsourc_djtogbdder5y-fill" stroke="none" fill="#484848"><g><text style="font: 20px &quot;Roboto&quot;, sans-serif; white-space: pre;" font-size="20px" font-family="'Roboto', sans-serif"><tspan x="12.27" y="34" dominant-baseline="ideographic">Outsourcing Challenges</tspan></text></g></g></g><g id="g-root-ic_puzz_mccb9nddkg08-fill" data-item-order="0" transform="translate(554, 164)"></g><g id="g-root-tx_disperse_m9uex7ddg7ib-fill" data-item-order="0" transform="translate(86, 242)"><g id="tx_disperse_m9uex7ddg7ib-fill" stroke="none" fill="#484848"><g><text style="font: 20px &quot;Roboto&quot;, sans-serif; white-space: pre;" font-size="20px" font-family="'Roboto', sans-serif"><tspan x="13.2" y="34" dominant-baseline="ideographic">Dispersed Engineering </tspan><tspan x="126.77" y="58" dominant-baseline="ideographic">Diagrams</tspan></text></g></g></g><g id="g-root-tx_partialc_1hgy9e3ddesqt-fill" data-item-order="0" transform="translate(386, 254)"><g id="tx_partialc_1hgy9e3ddesqt-fill" stroke="none" fill="#484848"><g><text style="font: 20px &quot;Roboto&quot;, sans-serif; white-space: pre;" font-size="20px" font-family="'Roboto', sans-serif"><tspan x="19.55" y="34" dominant-baseline="ideographic">Partial Communication</tspan></text></g></g></g><g id="g-root-tx_lackofsi_1q7lgy3ddg5xe-fill" data-item-order="0" transform="translate(110, 326)"><g id="tx_lackofsi_1q7lgy3ddg5xe-fill" stroke="none" fill="#484848"><g><text style="font: 20px &quot;Roboto&quot;, sans-serif; white-space: pre;" font-size="20px" font-family="'Roboto', sans-serif"><tspan x="20.02" y="34" dominant-baseline="ideographic">Lack of Single Source </tspan><tspan x="142.1" y="58" dominant-baseline="ideographic">of Truth</tspan></text></g></g></g><g id="g-root-tx_incomple_zofaq3ddesxw-fill" data-item-order="0" transform="translate(446, 326)"><g id="tx_incomple_zofaq3ddesxw-fill" stroke="none" fill="#484848"><g><text style="font: 20px &quot;Roboto&quot;, sans-serif; white-space: pre;" font-size="20px" font-family="'Roboto', sans-serif"><tspan x="13.37" y="34" dominant-baseline="ideographic">Incomplete Product </tspan><tspan x="84.1" y="58" dominant-baseline="ideographic">Information</tspan></text></g></g></g><g id="g-root-ic_2_hwit57ddlu6a-fill" data-item-order="0" transform="translate(722, 386)"></g><g id="g-root-tx_ineffect_90vswbddeqrv-fill" data-item-order="0" transform="translate(782, 374)"><g id="tx_ineffect_90vswbddeqrv-fill" stroke="none" fill="#484848"><g><text style="font: 20px &quot;Roboto&quot;, sans-serif; white-space: pre;" font-size="20px" font-family="'Roboto', sans-serif"><tspan x="12" y="34" dominant-baseline="ideographic">Ineffective System </tspan><tspan x="12" y="58" dominant-baseline="ideographic">Understanding and </tspan><tspan x="12" y="82" dominant-baseline="ideographic">Communication</tspan></text></g></g></g><g id="g-root-tx_domainsp_vccn4bddeqyv-fill" data-item-order="0" transform="translate(254, 458)"><g id="tx_domainsp_vccn4bddeqyv-fill" stroke="none" fill="#484848"><g><text style="font: 20px &quot;Roboto&quot;, sans-serif; white-space: pre;" font-size="20px" font-family="'Roboto', sans-serif"><tspan x="17.83" y="34" dominant-baseline="ideographic">Domain-Specific Terms</tspan></text></g></g></g><g id="g-root-tx_unexplai_8zyjddg6bk-fill" data-item-order="0" transform="translate(230, 542)"><g id="tx_unexplai_8zyjddg6bk-fill" stroke="none" fill="#484848"><g><text style="font: 20px &quot;Roboto&quot;, sans-serif; white-space: pre;" font-size="20px" font-family="'Roboto', sans-serif"><tspan x="19.85" y="34" dominant-baseline="ideographic">Unexplained Acronyms</tspan></text></g></g></g><g id="g-root-tx_smecommu_m8lgqzddg5c9-fill" data-item-order="0" transform="translate(194, 626)"><g id="tx_smecommu_m8lgqzddg5c9-fill" stroke="none" fill="#484848"><g><text style="font: 20px &quot;Roboto&quot;, sans-serif; white-space: pre;" font-size="20px" font-family="'Roboto', sans-serif"><tspan x="12.67" y="34" dominant-baseline="ideographic">SME Communication</tspan></text></g></g></g><g id="g-root-ic_imes_6hqtnddiyoe-fill" data-item-order="0" transform="translate(398, 620)"></g><g id="g-root-sy_3_cu_1q9gw7fddeqrr-stroke" data-item-order="-317368" transform="translate(590, 182.00048828125)"><g id="sy_3_cu_1q9gw7fddeqrr-stroke" fill="none" stroke-linecap="round" stroke-linejoin="round" stroke-miterlimit="4" stroke="#484848" stroke-width="2"><g><path d="M 33.84668 93.999512L 45.84668 93.999512M 58.195313 177.999512L 70.195313 177.999512M 87.9997 238L 21.9997 10L 10 10"></path></g></g></g><g id="g-root-sy_2_cu_1cy0du3ddesco-stroke" data-item-order="-317364" transform="translate(434, 409.99951171875)"><g id="sy_2_cu_1cy0du3ddesco-stroke" fill="none" stroke-linecap="round" stroke-linejoin="round" stroke-miterlimit="4" stroke="#484848" stroke-width="2"><g><path d="M 33.851563 154.000488L 45.851563 154.000488M 58.200195 70.000488L 70.200195 70.000488M 87.9997 10L 21.9997 238L 10 238"></path></g></g></g><g id="g-root-sy_1_cu_zn6cjvddeqrt-stroke" data-item-order="-317360" transform="translate(278, 182.00048828125)"><g id="sy_1_cu_zn6cjvddeqrt-stroke" fill="none" stroke-linecap="round" stroke-linejoin="round" stroke-miterlimit="4" stroke="#484848" stroke-width="2"><g><path d="M 33.851563 93.999512L 45.851563 93.999512M 58.200195 177.999512L 70.200195 177.999512M 87.9997 238L 21.9997 10L 10 10"></path></g></g></g><g id="g-root-sy_-1_line_mbpu6jddescq-stroke" data-item-order="-317354" transform="translate(14, 410)"><g id="sy_-1_line_mbpu6jddescq-stroke" fill="none" stroke-linecap="round" stroke-linejoin="round" stroke-miterlimit="4" stroke="#484848" stroke-width="2"><g><path d="M 704 10L 10 10"></path><path d="M 698 16.5L 704.5 10L 698 3.5" stroke-dasharray="none"></path></g></g></g><g id="g-root-tx_challeng_4kftorddg83x-stroke" data-item-order="0" transform="translate(266, 38)"></g><g id="g-root-tx_document_18i6vpnddg6j0-stroke" data-item-order="0" transform="translate(26, 170)"></g><g id="g-root-ic_ques_zofaq3ddg6by-stroke" data-item-order="0" transform="translate(242, 164)"><g id="ic_ques_zofaq3ddg6by-stroke" fill="none" stroke-linecap="round" stroke-linejoin="round" stroke-miterlimit="4" stroke="#484848" stroke-width="2"><g><path d="M 16.75 22.75L 31 22.75M 16.75 27.25L 25.75 27.25M 16.75 18.25L 27.25 18.25M 16.75 31.75L 22.75 31.75M 16.75 36.25L 22.75 36.25M 25.75 45.25L 12.25 45.25C 11.421573 45.25 10.75 44.578426 10.75 43.75L 10.75 12.25C 10.75 11.421573 11.421573 10.75 12.25 10.75L 32.189499 10.75C 32.587292 10.750085 32.968761 10.908176 33.25 11.1895L 38.810501 16.75C 39.091827 17.031239 39.249916 17.412708 39.25 17.810499L 39.25 22.75M 27.25 36.25C 27.250002 41.220566 31.279438 45.25 36.25 45.25C 41.220566 45.25 45.25 41.220566 45.25 36.25C 45.25 31.279438 41.220566 27.250002 36.25 27.250002C 31.279438 27.250002 27.250002 31.279438 27.250002 36.25ZM 33.4375 34.063C 33.4375 32.509701 34.696701 31.250502 36.25 31.250502C 37.803299 31.250502 39.0625 32.509701 39.0625 34.063004C 39.0625 35.616302 37.803299 36.875504 36.25 36.875504L 36.25 38.3755M 36.25 41.3755C 36.457108 41.3755 36.625 41.543392 36.625 41.7505C 36.625 41.957607 36.457108 42.1255 36.25 42.1255C 36.042892 42.1255 35.875 41.957607 35.875 41.7505C 35.875 41.543392 36.042892 41.3755 36.25 41.3755"></path></g></g></g><g id="g-root-tx_outsourc_djtogbdder5y-stroke" data-item-order="0" transform="translate(326, 170)"></g><g id="g-root-ic_puzz_mccb9nddkg08-stroke" data-item-order="0" transform="translate(554, 164)"><g id="ic_puzz_mccb9nddkg08-stroke" fill="none" stroke-linecap="round" stroke-linejoin="round" stroke-miterlimit="4" stroke="#484848" stroke-width="2"><g><path d="M 35.650002 27.985001C 34.460819 26.845629 34.384823 24.970093 35.477921 23.738239C 36.571014 22.506388 38.442276 22.358776 39.715 23.403999C 39.805168 23.483669 39.890331 23.56883 39.970001 23.659C 40.273773 23.962473 40.513062 24.324217 40.6735 24.7225C 40.770393 24.966915 40.982262 25.147314 41.238998 25.203999C 41.4953 25.262419 41.76366 25.185421 41.949997 25L 44.338001 22.599998C 44.62466 22.307318 44.783203 21.91268 44.778702 21.503025C 44.7742 21.093372 44.607025 20.702312 44.314003 20.416L 44.313999 20.416L 41.800003 17.918499C 42.321404 17.785284 42.797157 17.513721 43.177002 17.1325C 44.362701 15.907427 44.346779 13.957815 43.141235 12.752267C 41.935684 11.54672 39.986073 11.5308 38.761002 12.7165C 38.379967 13.096247 38.108871 13.572086 37.976498 14.0935L 35.473 11.59C 34.876812 10.980179 33.899261 10.968764 33.288998 11.5645L 33.289001 11.5645L 31.066 13.7875C 30.903805 13.951191 30.824398 14.179488 30.85 14.408501C 30.876081 14.640985 31.003426 14.850114 31.198 14.98C 32.146904 15.557587 32.708935 16.603464 32.666946 17.713537C 32.624954 18.823608 31.985516 19.824038 30.995691 20.328289C 30.005865 20.832541 28.82066 20.761646 27.898001 20.143C 27.701496 20.018612 27.520258 19.871609 27.358 19.705C 27.214437 19.556313 27.086285 19.393484 26.9755 19.219C 26.844635 19.0252 26.636139 18.897696 26.403999 18.869499C 26.174536 18.84387 25.94577 18.923248 25.7815 19.085499L 23.551001 21.3025C 22.952868 21.91222 22.962269 22.891378 23.572001 23.4895L 32.403999 32.321499C 33.002472 32.930405 33.980946 32.9398 34.591 32.342499L 36.979 29.950001C 37.160801 29.765896 37.236526 29.501989 37.18 29.249502C 37.12336 28.993006 36.944565 28.780579 36.7015 28.681C 36.307438 28.522688 35.949692 28.285889 35.650002 27.985001ZM 11.2285 41.3125C 26.9785 46.5625 21.7285 46.5625 39.7285 37.5625C 38.691734 36.167946 36.894646 35.568913 35.2285 36.0625L 28.75 38.112999M 11.2285 32.969498L 15.7285 32.969498C 19.257999 32.969498 21.7285 35.969498 22.4785 35.969498L 27.7285 35.969498C 29.2285 35.969498 29.2285 38.969498 27.7285 38.969498L 19.4785 38.969498M 16.349499 33.000999C 16.349499 33.000999 17.950001 38.154999 11.2285 38.154999M 32.795498 36.8335L 34.682499 40.154503M 27.185499 38.969498L 28.8715 43.205498M 22.6315 35.969498C 22.340487 36.94833 22.340487 37.990677 22.6315 38.969501"></path></g></g></g><g id="g-root-tx_disperse_m9uex7ddg7ib-stroke" data-item-order="0" transform="translate(86, 242)"></g><g id="g-root-tx_partialc_1hgy9e3ddesqt-stroke" data-item-order="0" transform="translate(386, 254)"></g><g id="g-root-tx_lackofsi_1q7lgy3ddg5xe-stroke" data-item-order="0" transform="translate(110, 326)"></g><g id="g-root-tx_incomple_zofaq3ddesxw-stroke" data-item-order="0" transform="translate(446, 326)"></g><g id="g-root-ic_2_hwit57ddlu6a-stroke" data-item-order="0" transform="translate(722, 386)"><g id="ic_2_hwit57ddlu6a-stroke" fill="none" stroke-linecap="round" stroke-linejoin="round" stroke-miterlimit="4" stroke="#484848" stroke-width="2"><g><path d="M 10 10M 12.106 53.560001L 13.636 47.18C 12.589798 45.532017 12.054022 43.611572 12.096001 41.660004C 12.133389 39.692291 12.740575 37.777641 13.844 36.147999C 14.929523 34.537514 16.471466 33.288082 18.271999 32.560001C 20.038494 31.847023 21.983124 31.70163 23.835999 32.143997C 28.625999 33.292 31.455999 37.888 30.261999 42.59C 30.516001 44.290001 31.552 45.591999 31.782 47.484001C 31.81147 47.740273 31.718027 47.995392 31.530001 48.172001C 31.439501 48.25705 31.329679 48.318825 31.209999 48.351997C 31.091276 48.385281 30.96607 48.388031 30.846001 48.360001L 28.986 47.914001L 28.254 50.967999C 28.063627 51.772572 27.569969 52.472576 26.875999 52.922001C 26.188 53.362 25.364 53.506001 24.586 53.32L 23.118 52.967999L 22.386 56.021999M 55.894001 53.560001L 54.363998 47.18C 55.410309 45.532063 55.946095 43.611584 55.903996 41.659996C 55.866608 39.692291 55.259422 37.777641 54.155998 36.147999C 53.070919 34.537907 51.529739 33.288528 49.73 32.559998C 47.962906 31.846601 46.017509 31.701202 44.164001 32.143997C 39.374001 33.292 36.543999 37.888 37.737999 42.59C 37.484001 44.290001 36.447998 45.591999 36.218002 47.484001C 36.187874 47.740349 36.281425 47.995754 36.470001 48.171997C 36.560547 48.256992 36.670349 48.318756 36.790001 48.352001C 36.91 48.386002 37.034 48.388 37.153999 48.360001L 39.014 47.914001L 39.746002 50.967999C 39.940002 51.778 40.436001 52.481998 41.124001 52.922001C 41.812 53.362 42.636002 53.506001 43.414001 53.32L 44.882 52.967999L 45.613998 56.021999M 43.422001 21.406C 43.555187 21.288349 43.637028 21.123234 43.650002 20.945999C 43.650139 20.771185 43.579426 20.603775 43.454002 20.482C 43.297016 20.325308 43.105091 20.208097 42.894001 20.139999C 42.643478 20.055017 42.380535 20.012432 42.116001 20.014L 36.903999 20.014L 36.903999 11.978L 25.883999 22.639999C 25.751381 22.757856 25.670244 22.923002 25.657999 23.099998C 25.65786 23.274815 25.728577 23.442225 25.854 23.563999C 25.986 23.706001 26.18 23.824001 26.414 23.906C 26.652 23.987999 26.92 24.032 27.191999 24.032L 32.405998 24.032L 32.405998 32.068001L 43.422001 21.406Z"></path></g></g></g><g id="g-root-tx_ineffect_90vswbddeqrv-stroke" data-item-order="0" transform="translate(782, 374)"></g><g id="g-root-tx_domainsp_vccn4bddeqyv-stroke" data-item-order="0" transform="translate(254, 458)"></g><g id="g-root-tx_unexplai_8zyjddg6bk-stroke" data-item-order="0" transform="translate(230, 542)"></g><g id="g-root-tx_smecommu_m8lgqzddg5c9-stroke" data-item-order="0" transform="translate(194, 626)"></g><g id="g-root-ic_imes_6hqtnddiyoe-stroke" data-item-order="0" transform="translate(398, 620)"><g id="ic_imes_6hqtnddiyoe-stroke" fill="none" stroke-linecap="round" stroke-linejoin="round" stroke-miterlimit="4" stroke="#484848" stroke-width="2"><g><path d="M 28 13.75C 19.7155 13.75 13 19.112499 13 25.727499C 13.089201 29.135069 14.764083 32.305641 17.5285 34.300003C 17.835384 35.387127 17.683868 36.552494 17.109201 37.525005C 16.534536 38.49752 15.586814 39.192398 14.4865 39.447998C 14.4865 39.447998 14.007999 40.060001 15.199 40.287998C 19.987 41.160999 23.8615 37.318001 23.8615 37.318001L 23.8615 37.241501C 25.21937 37.550018 26.607521 37.705486 28 37.704998C 36.282997 37.704998 43 32.341 43 25.727499C 43 19.114 36.282997 13.75 28 13.75Z"></path></g></g></g></g></g></svg>